<svg xmlns="http://www.w3.org/2000/svg" viewBox="0 0 24 24" fill="none" stroke="white" stroke-width="1.25" stroke-linecap="round" stroke-linejoin="round" width="48" height="48">
  
  <path d="M 8 4 C 6 4 5 5 5 8 C 5 11 3 12 3 12 C 3 12 5 13 5 16 C 5 19 6 20 8 20" />
  <path d="M 16 4 C 18 4 19 5 19 8 C 19 11 21 12 21 12 C 21 12 19 13 19 16 C 19 19 18 20 16 20" />
  
  <rect x="9" y="6" width="6" height="3" rx="0.5" />
  
  <rect x="9" y="10.5" width="6" height="3" rx="0.5" />
  
  <line x1="10" y1="16.5" x2="10.1" y2="16.5" />
  <line x1="12" y1="16.5" x2="12.1" y2="16.5" />
  <line x1="14" y1="16.5" x2="14.1" y2="16.5" />
</svg>
