<svg xmlns="http://www.w3.org/2000/svg" viewBox="0 0 24 24" fill="none" stroke="white" stroke-width="1.25" stroke-linecap="round" stroke-linejoin="round" width="48" height="48">
  <path d="M 3 12 A 9 9 0 0 1 18.5 5.5 L 21 8" />
  <polyline points="21 5 21 8 18 8" />
  
  <path d="M 21 12 A 9 9 0 0 1 5.5 18.5 L 3 16" />
  <polyline points="3 19 3 16 6 16" />

  <path d="M 9.5 16 H 14.5 A 1 1 0 0 0 15.5 15 V 14 A 1 1 0 0 0 14.5 13 H 9.5 A 1 1 0 0 0 8.5 14 V 15 A 1 1 0 0 0 9.5 16 Z" />
  
  <line x1="12" y1="13" x2="12" y2="8.5" />
  <circle cx="12" cy="7" r="1.5" />
</svg>
